<svg xmlns="http://www.w3.org/2000/svg" xmlns:xlink="http://www.w3.org/1999/xlink" width="120" zoomAndPan="magnify" viewBox="0 0 90 52.499999" height="70" preserveAspectRatio="xMidYMid meet" version="1.0"><defs><clipPath id="eb293ece56"><path d="M 22 19.042969 L 56 19.042969 L 56 52.003906 L 22 52.003906 Z M 22 19.042969 " clip-rule="nonzero"/></clipPath><clipPath id="18f1887f9f"><path d="M 0.425781 30 L 34 30 L 34 51 L 0.425781 51 Z M 0.425781 30 " clip-rule="nonzero"/></clipPath><clipPath id="7546644c62"><path d="M 0.425781 30 L 35 30 L 35 51 L 0.425781 51 Z M 0.425781 30 " clip-rule="nonzero"/></clipPath><clipPath id="4856b31afa"><path d="M 0.425781 30 L 31 30 L 31 32 L 0.425781 32 Z M 0.425781 30 " clip-rule="nonzero"/></clipPath><clipPath id="b44b9011c8"><path d="M 0.425781 32 L 30 32 L 30 35 L 0.425781 35 Z M 0.425781 32 " clip-rule="nonzero"/></clipPath><clipPath id="da006ea937"><path d="M 0.425781 47 L 30 47 L 30 49 L 0.425781 49 Z M 0.425781 47 " clip-rule="nonzero"/></clipPath><clipPath id="935f231695"><path d="M 0.425781 49 L 29 49 L 29 51 L 0.425781 51 Z M 0.425781 49 " clip-rule="nonzero"/></clipPath><clipPath id="15a2a1e5b5"><path d="M 51 4.082031 L 59 4.082031 L 59 12 L 51 12 Z M 51 4.082031 " clip-rule="nonzero"/></clipPath><clipPath id="3bc9030900"><path d="M 31 29 L 64.8125 29 L 64.8125 38.023438 L 31 38.023438 Z M 31 29 " clip-rule="nonzero"/></clipPath><clipPath id="ffd7664806"><path d="M 36 4.082031 L 63 4.082031 L 63 34 L 36 34 Z M 36 4.082031 " clip-rule="nonzero"/></clipPath><clipPath id="c369b8e661"><path d="M 40.496094 34 L 47 34 L 47 41 L 40.496094 41 Z M 40.496094 34 " clip-rule="nonzero"/></clipPath><clipPath id="d1b113a11f"><path d="M 46 40 L 53 40 L 53 46.488281 L 46 46.488281 Z M 46 40 " clip-rule="nonzero"/></clipPath><clipPath id="8f85670a90"><path d="M 40.496094 40 L 47 40 L 47 46.488281 L 40.496094 46.488281 Z M 40.496094 40 " clip-rule="nonzero"/></clipPath><clipPath id="ed188d00ae"><path d="M 40.496094 33.855469 L 53.125 33.855469 L 53.125 46.488281 L 40.496094 46.488281 Z M 40.496094 33.855469 " clip-rule="nonzero"/></clipPath><clipPath id="68b9ca0ffc"><path d="M 2.300781 2.035156 L 25.328125 2.035156 L 25.328125 22.835938 L 2.300781 22.835938 Z M 2.300781 2.035156 " clip-rule="nonzero"/></clipPath><clipPath id="4aa060e812"><path d="M 17 2.035156 L 23 2.035156 L 23 5 L 17 5 Z M 17 2.035156 " clip-rule="nonzero"/></clipPath><clipPath id="6e41ca0710"><path d="M 23.242188 6.480469 L 41.816406 6.480469 L 41.816406 16.136719 L 23.242188 16.136719 Z M 23.242188 6.480469 " clip-rule="nonzero"/></clipPath><clipPath id="13210c3677"><path d="M 8.980469 22.835938 L 16.40625 22.835938 L 16.40625 30.265625 L 8.980469 30.265625 Z M 8.980469 22.835938 " clip-rule="nonzero"/></clipPath><clipPath id="6fb1c1c66e"><path d="M 70 4 L 79.292969 4 L 79.292969 13.351562 L 70 13.351562 Z M 70 4 " clip-rule="nonzero"/></clipPath><clipPath id="cb1a78452f"><path d="M 63.691406 3 L 70 3 L 70 13.351562 L 63.691406 13.351562 Z M 63.691406 3 " clip-rule="nonzero"/></clipPath><clipPath id="d4a18deee6"><path d="M 67 16 L 86.839844 16 L 86.839844 33 L 67 33 Z M 67 16 " clip-rule="nonzero"/></clipPath><clipPath id="4d9821a45c"><path d="M 80 13.054688 L 85 13.054688 L 85 25 L 80 25 Z M 80 13.054688 " clip-rule="nonzero"/></clipPath><clipPath id="69ed3f0ff6"><path d="M 83 13.054688 L 85 13.054688 L 85 15 L 83 15 Z M 83 13.054688 " clip-rule="nonzero"/></clipPath><clipPath id="f755e6ecc6"><path d="M 79 13.054688 L 86.839844 13.054688 L 86.839844 19 L 79 19 Z M 79 13.054688 " clip-rule="nonzero"/></clipPath></defs><g clip-path="url(#eb293ece56)"><path fill="#000000" d="M 22.320312 35.992188 C 22.371094 33.960938 22.753906 31.378906 22.753906 31.378906 C 22.753906 31.378906 24.125 19.199219 28.121094 19.128906 C 32.117188 19.058594 33.441406 30.734375 33.441406 30.734375 L 32.765625 30.734375 L 32.765625 30.378906 C 32.765625 30.378906 32.214844 26.769531 30.9375 23.140625 C 29.660156 19.511719 28.074219 19.820312 28.074219 19.820312 C 23.261719 20.800781 22.972656 38.832031 22.972656 38.832031 L 22.226562 38.832031 C 22.199219 38.855469 22.273438 37.996094 22.320312 35.992188 Z M 22.199219 42.34375 C 22.199219 42.34375 22.632812 59.445312 27.808594 60.757812 C 27.808594 60.757812 30.214844 61.449219 31.902344 56.242188 C 33.585938 51.035156 33.417969 49.605469 33.417969 49.605469 L 32.574219 49.582031 C 32.574219 49.582031 32.40625 52.589844 31.347656 55.742188 C 30.289062 58.894531 29.058594 59.707031 29.058594 59.707031 C 29.058594 59.707031 28.167969 60.542969 27.183594 59.707031 C 26.195312 58.871094 25.066406 56.746094 24.320312 53.425781 C 23.574219 50.105469 22.828125 44.0625 22.875 42.007812 C 22.921875 39.953125 22.875 42.007812 22.875 42.007812 Z M 38.421875 30.640625 L 39.050781 30.640625 C 39.050781 30.640625 40.324219 24.335938 42.058594 24.070312 C 43.789062 23.808594 45.1875 30.855469 45.1875 30.855469 L 45.957031 30.855469 C 45.957031 30.855469 44.96875 23.59375 42.296875 23.332031 C 39.625 23.070312 38.472656 29.660156 38.421875 30.640625 Z M 42.296875 58.371094 C 44.945312 58.105469 45.957031 50.847656 45.957031 50.847656 L 45.1875 50.847656 C 45.1875 50.847656 43.789062 57.914062 42.058594 57.628906 C 40.324219 57.367188 39.050781 51.0625 39.050781 51.0625 L 38.421875 51.0625 C 38.472656 52.039062 39.652344 58.632812 42.296875 58.371094 Z M 50.792969 30.640625 L 51.539062 30.640625 C 51.539062 30.640625 52.191406 26.675781 53.175781 26.246094 C 53.175781 26.246094 53.539062 26.078125 54.09375 27.605469 C 54.644531 29.136719 54.863281 30.757812 54.863281 30.757812 L 55.632812 30.757812 C 55.632812 30.757812 54.839844 25.3125 53.226562 25.527344 C 51.589844 25.742188 51.25 28.15625 50.792969 30.640625 Z M 53.203125 56.148438 C 54.8125 56.363281 55.609375 50.917969 55.609375 50.917969 L 54.839844 50.917969 C 54.839844 50.917969 54.621094 52.566406 54.066406 54.070312 C 53.515625 55.574219 53.152344 55.433594 53.152344 55.433594 C 52.167969 55 51.515625 51.035156 51.515625 51.035156 L 50.769531 51.035156 C 51.25 53.519531 51.589844 55.933594 53.203125 56.148438 Z M 53.203125 56.148438 " fill-opacity="1" fill-rule="nonzero"/></g><g clip-path="url(#18f1887f9f)"><path fill="#000000" d="M 33.753906 39.953125 C 33.753906 43.65625 33.488281 47.121094 33.007812 50.105469 L 28.410156 50.105469 C 28.121094 49.316406 27.882812 48.554688 27.664062 47.8125 C 27.136719 46.019531 26.820312 44.375 26.652344 42.894531 L 22.609375 42.75 L -15.78125 41.316406 L -17.078125 40.933594 L -15.683594 40.457031 L 22.585938 38.953125 L 26.605469 38.785156 C 26.796875 36.445312 27.398438 34.675781 28.074219 33.386719 C 28.578125 32.382812 29.132812 31.691406 29.542969 31.238281 C 29.925781 30.808594 30.191406 30.617188 30.191406 30.617188 L 33.152344 30.617188 C 33.511719 33.433594 33.753906 36.585938 33.753906 39.953125 Z M 33.753906 39.953125 " fill-opacity="1" fill-rule="nonzero"/></g><g clip-path="url(#7546644c62)"><path fill="#000000" d="M 33.441406 39.953125 C 33.441406 43.324219 33.222656 46.691406 32.71875 50.035156 C 32.816406 49.960938 32.910156 49.890625 33.007812 49.820312 C 31.46875 49.820312 29.949219 49.820312 28.410156 49.820312 C 28.507812 49.890625 28.601562 49.960938 28.699219 50.035156 C 27.882812 47.71875 27.230469 45.328125 26.964844 42.894531 C 26.941406 42.726562 26.847656 42.605469 26.675781 42.605469 C 25.328125 42.558594 23.980469 42.511719 22.609375 42.460938 C 22.128906 42.4375 21.648438 42.4375 21.164062 42.414062 C 19.960938 42.367188 18.734375 42.320312 17.53125 42.273438 C 15.796875 42.199219 14.089844 42.152344 12.355469 42.082031 C 10.3125 42.007812 8.265625 41.9375 6.242188 41.84375 C 4.101562 41.769531 1.984375 41.675781 -0.160156 41.601562 C -2.15625 41.53125 -4.179688 41.460938 -6.175781 41.386719 C -7.859375 41.316406 -9.546875 41.269531 -11.230469 41.195312 C -12.363281 41.148438 -13.492188 41.101562 -14.625 41.078125 C -14.914062 41.078125 -15.226562 41.054688 -15.515625 41.054688 C -15.585938 41.054688 -15.660156 41.054688 -15.730469 41.054688 C -15.753906 41.054688 -15.753906 41.054688 -15.78125 41.054688 C -15.609375 41.078125 -15.851562 41.03125 -15.925781 41.007812 C -16.285156 40.886719 -16.644531 40.789062 -17.007812 40.671875 C -17.007812 40.863281 -17.007812 41.054688 -17.007812 41.246094 C -16.644531 41.125 -16.261719 40.980469 -15.898438 40.863281 C -15.828125 40.839844 -15.730469 40.816406 -15.683594 40.789062 C -15.636719 40.765625 -15.660156 40.789062 -15.707031 40.789062 C -15.707031 40.789062 -15.683594 40.789062 -15.660156 40.789062 C -15.46875 40.789062 -15.296875 40.765625 -15.105469 40.765625 C -14.144531 40.71875 -13.203125 40.695312 -12.242188 40.648438 C -10.675781 40.574219 -9.113281 40.527344 -7.546875 40.457031 C -5.597656 40.386719 -3.671875 40.3125 -1.722656 40.21875 C 0.394531 40.144531 2.511719 40.050781 4.628906 39.980469 C 6.699219 39.90625 8.769531 39.8125 10.863281 39.738281 C 12.695312 39.667969 14.523438 39.597656 16.328125 39.523438 C 17.699219 39.476562 19.046875 39.429688 20.417969 39.359375 C 21.09375 39.335938 21.792969 39.308594 22.464844 39.285156 C 23.621094 39.238281 24.777344 39.191406 25.929688 39.144531 C 26.148438 39.144531 26.363281 39.117188 26.582031 39.117188 C 26.75 39.117188 26.871094 38.976562 26.871094 38.832031 C 27.039062 36.730469 27.59375 34.628906 28.722656 32.835938 C 28.988281 32.429688 29.277344 32.027344 29.589844 31.667969 C 29.757812 31.476562 29.925781 31.308594 30.09375 31.140625 C 30.167969 31.09375 30.214844 31.023438 30.289062 30.976562 C 30.457031 30.832031 30.214844 31.046875 30.167969 30.976562 C 30.191406 31 30.601562 30.976562 30.625 30.976562 C 30.9375 30.976562 31.25 30.976562 31.539062 30.976562 C 32.070312 30.976562 32.574219 30.976562 33.105469 30.976562 C 33.007812 30.902344 32.910156 30.832031 32.816406 30.757812 C 33.273438 33.769531 33.441406 36.851562 33.441406 39.953125 C 33.441406 40.335938 34.042969 40.335938 34.042969 39.953125 C 34.042969 36.800781 33.851562 33.671875 33.417969 30.570312 C 33.394531 30.449219 33.25 30.355469 33.128906 30.355469 C 32.648438 30.355469 32.164062 30.355469 31.683594 30.355469 C 31.203125 30.355469 30.671875 30.304688 30.191406 30.355469 C 29.878906 30.378906 29.589844 30.785156 29.398438 30.976562 C 29.058594 31.332031 28.773438 31.714844 28.507812 32.097656 C 27.90625 32.957031 27.449219 33.914062 27.109375 34.890625 C 26.652344 36.15625 26.414062 37.472656 26.292969 38.808594 C 26.390625 38.714844 26.484375 38.617188 26.582031 38.523438 C 25.234375 38.570312 23.910156 38.617188 22.5625 38.6875 C 22.082031 38.714844 21.574219 38.738281 21.09375 38.738281 C 19.867188 38.785156 18.636719 38.832031 17.433594 38.878906 C 15.703125 38.953125 13.96875 39.023438 12.234375 39.09375 C 10.191406 39.167969 8.144531 39.261719 6.097656 39.335938 C 3.957031 39.40625 1.839844 39.5 -0.304688 39.574219 C -2.300781 39.644531 -4.300781 39.738281 -6.296875 39.8125 C -7.957031 39.882812 -9.640625 39.929688 -11.304688 40.003906 C -12.410156 40.050781 -13.515625 40.097656 -14.625 40.121094 C -15.105469 40.144531 -15.585938 40.121094 -16.070312 40.265625 C -16.429688 40.386719 -16.789062 40.527344 -17.175781 40.648438 C -17.441406 40.742188 -17.464844 41.125 -17.175781 41.222656 C -16.789062 41.339844 -16.429688 41.4375 -16.042969 41.554688 C -15.949219 41.578125 -15.851562 41.601562 -15.753906 41.625 C -15.5625 41.652344 -15.371094 41.652344 -15.203125 41.652344 C -14.238281 41.675781 -13.277344 41.722656 -12.3125 41.746094 C -10.75 41.792969 -9.183594 41.867188 -7.621094 41.914062 C -5.671875 41.984375 -3.722656 42.058594 -1.773438 42.128906 C 0.347656 42.199219 2.488281 42.296875 4.605469 42.367188 C 6.699219 42.4375 8.769531 42.535156 10.863281 42.605469 C 12.695312 42.679688 14.523438 42.75 16.351562 42.820312 C 17.722656 42.867188 19.070312 42.917969 20.445312 42.964844 C 21.117188 42.988281 21.816406 43.011719 22.488281 43.035156 C 23.667969 43.082031 24.824219 43.132812 26.003906 43.15625 C 26.21875 43.15625 26.4375 43.179688 26.652344 43.179688 C 26.558594 43.082031 26.460938 42.988281 26.363281 42.894531 C 26.652344 45.375 27.277344 47.8125 28.121094 50.175781 C 28.167969 50.296875 28.265625 50.390625 28.410156 50.390625 C 29.949219 50.390625 31.46875 50.390625 33.007812 50.390625 C 33.128906 50.390625 33.273438 50.296875 33.296875 50.175781 C 33.824219 46.785156 34.042969 43.371094 34.042969 39.953125 C 34.042969 39.574219 33.441406 39.574219 33.441406 39.953125 Z M 33.441406 39.953125 " fill-opacity="1" fill-rule="nonzero"/></g><g clip-path="url(#4856b31afa)"><path fill="#000000" d="M 30.191406 30.664062 C 29.085938 30.664062 27.976562 30.664062 26.871094 30.664062 C 24.246094 30.664062 21.597656 30.6875 18.976562 30.6875 C 15.773438 30.6875 12.597656 30.710938 9.394531 30.710938 C 6.628906 30.710938 3.882812 30.734375 1.117188 30.734375 C -0.207031 30.734375 -1.554688 30.710938 -2.902344 30.757812 C -2.925781 30.757812 -2.949219 30.757812 -2.949219 30.757812 C -3.722656 30.757812 -3.722656 31.953125 -2.949219 31.953125 C -1.84375 31.953125 -0.738281 31.953125 0.371094 31.953125 C 2.992188 31.953125 5.640625 31.929688 8.265625 31.929688 C 11.464844 31.929688 14.644531 31.90625 17.84375 31.90625 C 20.613281 31.90625 23.355469 31.882812 26.125 31.882812 C 27.449219 31.882812 28.796875 31.90625 30.144531 31.859375 C 30.167969 31.859375 30.191406 31.859375 30.191406 31.859375 C 30.960938 31.859375 30.960938 30.664062 30.191406 30.664062 Z M 30.191406 30.664062 " fill-opacity="1" fill-rule="nonzero"/></g><g clip-path="url(#b44b9011c8)"><path fill="#000000" d="M 29.324219 32.789062 C 28.097656 32.789062 26.871094 32.789062 25.644531 32.789062 C 22.707031 32.789062 19.746094 32.789062 16.808594 32.8125 C 13.246094 32.8125 9.710938 32.835938 6.148438 32.835938 C 3.066406 32.835938 0.0078125 32.835938 -3.070312 32.863281 C -4.5625 32.863281 -6.054688 32.8125 -7.574219 32.863281 C -7.597656 32.863281 -7.621094 32.863281 -7.644531 32.863281 C -8.414062 32.863281 -8.414062 34.054688 -7.644531 34.054688 C -6.417969 34.054688 -5.191406 34.054688 -3.960938 34.054688 C -1.027344 34.054688 1.933594 34.054688 4.871094 34.03125 C 8.433594 34.03125 11.972656 34.007812 15.535156 34.007812 C 18.613281 34.007812 21.671875 34.007812 24.753906 33.984375 C 26.246094 33.984375 27.738281 34.03125 29.253906 33.984375 C 29.277344 33.984375 29.300781 33.984375 29.324219 33.984375 C 30.09375 33.984375 30.09375 32.789062 29.324219 32.789062 Z M 29.324219 32.789062 " fill-opacity="1" fill-rule="nonzero"/></g><g clip-path="url(#da006ea937)"><path fill="#000000" d="M 28.554688 47.214844 C 27.351562 47.214844 26.148438 47.214844 24.921875 47.214844 C 22.03125 47.214844 19.167969 47.238281 16.28125 47.238281 C 12.789062 47.238281 9.324219 47.261719 5.835938 47.261719 C 2.824219 47.261719 -0.183594 47.289062 -3.191406 47.289062 C -4.660156 47.289062 -6.128906 47.261719 -7.597656 47.3125 C -7.621094 47.3125 -7.644531 47.3125 -7.667969 47.3125 C -8.4375 47.3125 -8.4375 48.503906 -7.667969 48.503906 C -6.464844 48.503906 -5.261719 48.503906 -4.035156 48.503906 C -1.144531 48.503906 1.71875 48.480469 4.605469 48.480469 C 8.097656 48.480469 11.5625 48.457031 15.050781 48.457031 C 18.0625 48.457031 21.070312 48.433594 24.078125 48.433594 C 25.546875 48.433594 27.015625 48.457031 28.484375 48.410156 C 28.507812 48.410156 28.53125 48.410156 28.554688 48.410156 C 29.324219 48.410156 29.324219 47.214844 28.554688 47.214844 Z M 28.554688 47.214844 " fill-opacity="1" fill-rule="nonzero"/></g><g clip-path="url(#935f231695)"><path fill="#000000" d="M -2.011719 50.75 C -0.832031 50.75 0.347656 50.75 1.5 50.75 C 4.171875 50.75 6.820312 50.75 9.492188 50.726562 C 12.308594 50.726562 15.148438 50.726562 17.964844 50.703125 C 19.648438 50.703125 21.335938 50.703125 23.019531 50.703125 C 24.726562 50.703125 26.414062 50.703125 28.121094 50.703125 C 28.21875 50.703125 28.3125 50.703125 28.386719 50.703125 C 29.15625 50.703125 29.15625 49.507812 28.386719 49.507812 C 26.652344 49.507812 24.921875 49.507812 23.1875 49.507812 C 21.71875 49.507812 20.273438 49.507812 18.808594 49.507812 C 16.0625 49.507812 13.296875 49.507812 10.550781 49.53125 C 7.808594 49.53125 5.039062 49.53125 2.296875 49.554688 C 0.875 49.554688 -0.542969 49.507812 -1.964844 49.554688 C -1.988281 49.554688 -2.011719 49.554688 -2.035156 49.554688 C -2.78125 49.554688 -2.78125 50.75 -2.011719 50.75 Z M -2.011719 50.75 " fill-opacity="1" fill-rule="nonzero"/></g><path fill="#000000" d="M 34.933594 49.484375 C 34.378906 49.484375 33.800781 49.484375 33.25 49.484375 C 33.175781 49.484375 33.078125 49.484375 33.007812 49.484375 C 32.695312 49.484375 32.382812 49.746094 32.40625 50.082031 C 32.429688 50.417969 32.671875 50.679688 33.007812 50.679688 C 33.5625 50.679688 34.140625 50.679688 34.691406 50.679688 C 34.765625 50.679688 34.859375 50.679688 34.933594 50.679688 C 35.246094 50.679688 35.558594 50.417969 35.535156 50.082031 C 35.535156 49.769531 35.269531 49.484375 34.933594 49.484375 Z M 34.933594 49.484375 " fill-opacity="1" fill-rule="nonzero"/><path fill="#000000" d="M 38.421875 51.0625 L 28.773438 51.0625 C 28.652344 50.75 28.53125 50.417969 28.410156 50.105469 L 33.007812 50.105469 C 33.488281 47.121094 33.753906 43.65625 33.753906 39.953125 C 33.753906 36.609375 33.539062 33.433594 33.152344 30.640625 L 38.445312 30.640625 C 38.421875 30.640625 36.113281 42.246094 38.421875 51.0625 Z M 38.421875 51.0625 " fill-opacity="1" fill-rule="nonzero"/><path fill="#000000" d="M 63.285156 30.640625 L 51.515625 30.640625 C 49.878906 37.398438 50.410156 44.207031 50.964844 48.027344 L 62.683594 48.027344 C 63.308594 48.003906 63.910156 47.765625 64.539062 47.621094 C 65.1875 47.453125 65.835938 47.289062 66.488281 47.121094 C 67.8125 46.785156 69.160156 46.476562 70.484375 46.09375 C 70.941406 45.972656 71.132812 46.667969 70.675781 46.808594 C 69.328125 47.191406 67.929688 47.503906 66.582031 47.859375 C 65.910156 48.027344 65.234375 48.21875 64.5625 48.386719 C 63.960938 48.527344 63.359375 48.746094 62.734375 48.769531 L 51.105469 48.769531 C 51.347656 50.226562 51.539062 51.085938 51.539062 51.085938 L 62.828125 51.085938 C 62.828125 51.085938 81.890625 47.882812 82.589844 41.410156 C 83.144531 36.109375 63.285156 30.640625 63.285156 30.640625 Z M 64.394531 46.355469 C 64.34375 46.425781 64.25 46.523438 64.175781 46.523438 C 63.984375 46.546875 63.792969 46.617188 63.574219 46.691406 C 63.382812 46.761719 63.164062 46.808594 62.972656 46.808594 C 62.949219 46.808594 62.949219 46.808594 62.925781 46.808594 L 59.964844 46.808594 C 59.484375 46.808594 59.484375 46.070312 59.964844 46.070312 L 62.925781 46.070312 C 62.972656 46.070312 62.996094 46.070312 63.019531 46.070312 C 63.359375 46.019531 63.648438 45.878906 63.984375 45.804688 C 64.082031 45.78125 64.175781 45.804688 64.273438 45.855469 C 64.34375 45.902344 64.417969 45.972656 64.441406 46.070312 C 64.441406 46.164062 64.417969 46.285156 64.394531 46.355469 Z M 65.644531 33.484375 C 65.621094 33.578125 65.546875 33.648438 65.476562 33.699219 C 65.402344 33.746094 65.285156 33.769531 65.1875 33.746094 C 65.019531 33.699219 64.851562 33.601562 64.683594 33.578125 C 64.65625 33.578125 64.65625 33.578125 64.632812 33.578125 C 64.371094 33.484375 64.105469 33.386719 63.863281 33.292969 C 63.625 33.195312 63.382812 33.101562 63.140625 33.027344 L 59.242188 33.027344 C 58.761719 33.027344 58.761719 32.289062 59.242188 32.289062 L 63.214844 32.289062 C 63.261719 32.289062 63.285156 32.289062 63.335938 32.3125 C 63.597656 32.359375 63.839844 32.480469 64.082031 32.574219 C 64.34375 32.671875 64.585938 32.765625 64.851562 32.863281 C 64.851562 32.863281 64.875 32.863281 64.875 32.863281 C 65.066406 32.886719 65.234375 33.003906 65.402344 33.050781 C 65.5 33.078125 65.574219 33.148438 65.621094 33.21875 C 65.667969 33.292969 65.667969 33.386719 65.644531 33.484375 Z M 65.644531 33.484375 " fill-opacity="1" fill-rule="nonzero"/><path fill="#000000" d="M 50.191406 48.746094 C 50.359375 49.53125 50.554688 50.296875 50.792969 51.0625 L 39.050781 51.0625 C 39.050781 51.0625 36.980469 40.765625 39.050781 30.640625 L 50.792969 30.640625 C 50.792969 30.640625 48.628906 39.8125 50.074219 48.027344 L 46.054688 48.027344 C 45.570312 48.027344 45.570312 48.769531 46.054688 48.769531 L 50.191406 48.769531 Z M 50.191406 48.746094 " fill-opacity="1" fill-rule="nonzero"/><g clip-path="url(#15a2a1e5b5)"><path fill="#000000" d="M 58.59375 8.351562 C 58.59375 8.800781 58.507812 9.230469 58.335938 9.644531 C 58.164062 10.058594 57.921875 10.425781 57.605469 10.742188 C 57.289062 11.058594 56.921875 11.304688 56.507812 11.476562 C 56.09375 11.648438 55.664062 11.730469 55.214844 11.730469 C 54.765625 11.730469 54.335938 11.648438 53.921875 11.476562 C 53.507812 11.304688 53.140625 11.058594 52.824219 10.742188 C 52.507812 10.425781 52.261719 10.058594 52.089844 9.644531 C 51.917969 9.230469 51.832031 8.800781 51.832031 8.351562 C 51.832031 7.902344 51.917969 7.472656 52.089844 7.058594 C 52.261719 6.644531 52.507812 6.277344 52.824219 5.960938 C 53.140625 5.644531 53.507812 5.398438 53.921875 5.230469 C 54.335938 5.058594 54.765625 4.972656 55.214844 4.972656 C 55.664062 4.972656 56.09375 5.058594 56.507812 5.230469 C 56.921875 5.398438 57.289062 5.644531 57.605469 5.960938 C 57.921875 6.277344 58.164062 6.644531 58.335938 7.058594 C 58.507812 7.472656 58.59375 7.902344 58.59375 8.351562 Z M 58.59375 8.351562 " fill-opacity="1" fill-rule="nonzero"/></g><g clip-path="url(#3bc9030900)"><path fill="#000000" d="M 63.121094 38.023438 C 63.121094 38.023438 63.121094 38.023438 63.117188 38.023438 C 47.144531 37.957031 33.722656 33.808594 32.6875 33.480469 C 32.214844 33.410156 31.78125 33.148438 31.492188 32.757812 C 31.175781 32.328125 31.050781 31.78125 31.15625 31.265625 C 31.25 30.296875 32.289062 29.503906 33.371094 29.71875 L 63.519531 35.464844 C 64.300781 35.644531 64.578125 36.238281 64.519531 36.746094 C 64.441406 37.4375 63.800781 38.023438 63.121094 38.023438 Z M 63.121094 38.023438 " fill-opacity="1" fill-rule="nonzero"/></g><path fill="#000000" d="M 32.765625 34.921875 L 32.3125 35.730469 C 32.195312 35.933594 32.195312 36.183594 32.308594 36.386719 C 32.417969 36.59375 32.628906 36.722656 32.863281 36.738281 C 32.863281 36.738281 32.996094 36.746094 33.230469 36.746094 C 34.011719 36.746094 35.589844 36.664062 37.125 36.101562 C 35.046875 35.589844 33.546875 35.15625 32.765625 34.921875 Z M 32.765625 34.921875 " fill-opacity="1" fill-rule="nonzero"/><g clip-path="url(#ffd7664806)"><path fill="#000000" d="M 62.308594 20.242188 L 53.117188 12.738281 C 52.980469 12.601562 52.84375 12.535156 52.710938 12.535156 L 45.792969 10.152344 L 43.648438 5.054688 C 43.378906 4.449219 42.636719 4.109375 42.027344 4.378906 C 41.417969 4.652344 41.082031 5.394531 41.351562 6.003906 L 43.695312 11.636719 C 43.832031 11.976562 44.101562 12.246094 44.507812 12.3125 L 48.519531 13.820312 L 43.449219 18.6875 C 43.109375 19.023438 42.90625 19.429688 42.972656 19.902344 L 43.246094 25.109375 L 37.632812 27.949219 C 36.890625 28.355469 36.550781 29.300781 36.957031 30.046875 C 37.363281 30.789062 38.308594 31.128906 39.050781 30.722656 L 45.476562 27.410156 C 46.015625 27.136719 46.355469 26.53125 46.355469 25.921875 L 46.21875 22.945312 L 50.34375 25.921875 L 49.0625 31.050781 C 48.859375 31.863281 49.402344 32.742188 50.210938 32.945312 C 50.347656 32.945312 50.480469 33.011719 50.617188 33.011719 C 51.292969 33.011719 51.96875 32.539062 52.105469 31.796875 L 53.65625 25.648438 C 53.792969 25.042969 53.589844 24.367188 53.046875 24.027344 L 49.398438 21.390625 L 54.332031 16.929688 L 60.753906 22.203125 C 60.957031 22.40625 61.296875 22.472656 61.566406 22.472656 C 61.90625 22.472656 62.308594 22.335938 62.511719 22 C 62.917969 21.457031 62.851562 20.648438 62.308594 20.242188 Z M 62.308594 20.242188 " fill-opacity="1" fill-rule="nonzero"/></g><g clip-path="url(#c369b8e661)"><path fill="#ffe47e" d="M 40.78125 34.144531 L 46.808594 34.144531 L 46.808594 40.171875 L 40.78125 40.171875 Z M 40.78125 34.144531 " fill-opacity="1" fill-rule="evenodd"/></g><path fill="#7e9eff" d="M 46.808594 34.144531 L 52.832031 34.144531 L 52.832031 40.171875 L 46.808594 40.171875 Z M 46.808594 34.144531 " fill-opacity="1" fill-rule="evenodd"/><g clip-path="url(#d1b113a11f)"><path fill="#ff847e" d="M 46.808594 40.171875 L 52.832031 40.171875 L 52.832031 46.195312 L 46.808594 46.195312 Z M 46.808594 40.171875 " fill-opacity="1" fill-rule="evenodd"/></g><g clip-path="url(#8f85670a90)"><path fill="#7eff86" d="M 40.78125 40.171875 L 46.808594 40.171875 L 46.808594 46.195312 L 40.78125 46.195312 Z M 40.78125 40.171875 " fill-opacity="1" fill-rule="evenodd"/></g><g clip-path="url(#ed188d00ae)"><path fill="#232323" d="M 40.492188 34.144531 L 40.492188 46.195312 C 40.492188 46.355469 40.625 46.484375 40.78125 46.484375 L 52.832031 46.484375 C 52.914062 46.484375 52.984375 46.453125 53.035156 46.402344 L 53.046875 46.386719 L 53.058594 46.375 L 53.078125 46.351562 L 53.089844 46.332031 L 53.097656 46.3125 C 53.101562 46.304688 53.105469 46.292969 53.109375 46.28125 C 53.117188 46.261719 53.121094 46.242188 53.121094 46.222656 L 53.121094 34.144531 C 53.121094 33.984375 52.992188 33.855469 52.832031 33.855469 L 40.78125 33.855469 C 40.625 33.855469 40.492188 33.984375 40.492188 34.144531 Z M 46.519531 45.90625 L 46.519531 40.460938 L 41.070312 40.460938 L 41.070312 45.90625 Z M 49.5625 45.90625 L 47.097656 45.90625 L 47.097656 40.460938 C 47.097656 40.460938 52.542969 40.460938 52.542969 40.460938 C 52.542969 40.460938 52.542969 45.90625 52.542969 45.90625 Z M 43.660156 42.773438 L 42.996094 42.105469 C 42.882812 41.992188 42.699219 41.992188 42.585938 42.105469 C 42.472656 42.21875 42.472656 42.402344 42.585938 42.515625 L 43.253906 43.183594 L 42.585938 43.851562 C 42.472656 43.964844 42.472656 44.148438 42.585938 44.257812 C 42.699219 44.371094 42.882812 44.371094 42.996094 44.257812 L 43.660156 43.589844 L 44.328125 44.257812 C 44.441406 44.371094 44.625 44.371094 44.738281 44.257812 C 44.851562 44.148438 44.851562 43.964844 44.738281 43.851562 L 44.070312 43.183594 L 44.738281 42.515625 C 44.851562 42.402344 44.851562 42.21875 44.738281 42.105469 C 44.625 41.992188 44.441406 41.992188 44.328125 42.105469 Z M 48.828125 44.089844 L 50.875 44.089844 C 51.035156 44.089844 51.164062 43.960938 51.164062 43.800781 C 51.164062 43.640625 51.035156 43.511719 50.875 43.511719 L 48.828125 43.511719 C 48.667969 43.511719 48.539062 43.640625 48.539062 43.800781 C 48.539062 43.960938 48.667969 44.089844 48.828125 44.089844 Z M 48.769531 42.855469 L 50.8125 42.855469 C 50.972656 42.855469 51.101562 42.726562 51.101562 42.566406 C 51.101562 42.40625 50.972656 42.277344 50.8125 42.277344 L 48.769531 42.277344 C 48.609375 42.277344 48.480469 42.40625 48.480469 42.566406 C 48.480469 42.726562 48.609375 42.855469 48.769531 42.855469 Z M 41.070312 34.433594 L 41.070312 39.882812 L 46.519531 39.882812 L 46.519531 34.433594 Z M 47.097656 34.433594 L 52.542969 34.433594 L 52.542969 39.882812 L 47.097656 39.882812 Z M 43.371094 36.867188 L 42.429688 36.867188 C 42.269531 36.867188 42.140625 36.996094 42.140625 37.15625 C 42.140625 37.316406 42.269531 37.445312 42.429688 37.445312 L 43.371094 37.445312 L 43.371094 38.390625 C 43.371094 38.550781 43.503906 38.679688 43.660156 38.679688 C 43.820312 38.679688 43.953125 38.550781 43.953125 38.390625 L 43.953125 37.445312 L 44.894531 37.445312 C 45.054688 37.445312 45.183594 37.316406 45.183594 37.15625 C 45.183594 36.996094 45.054688 36.867188 44.894531 36.867188 L 43.953125 36.867188 L 43.953125 35.925781 C 43.953125 35.765625 43.820312 35.632812 43.660156 35.632812 C 43.503906 35.632812 43.371094 35.765625 43.371094 35.925781 Z M 50.691406 37.621094 C 50.46875 37.621094 50.28125 37.804688 50.28125 38.03125 C 50.28125 38.257812 50.46875 38.441406 50.691406 38.441406 C 50.917969 38.441406 51.101562 38.257812 51.101562 38.03125 C 51.101562 37.804688 50.917969 37.621094 50.691406 37.621094 Z M 50.488281 36.082031 L 48.746094 37.824219 C 48.632812 37.9375 48.632812 38.121094 48.746094 38.234375 C 48.855469 38.347656 49.039062 38.347656 49.152344 38.234375 L 50.898438 36.488281 C 51.011719 36.375 51.011719 36.195312 50.898438 36.082031 C 50.785156 35.96875 50.601562 35.96875 50.488281 36.082031 Z M 48.949219 35.875 C 48.722656 35.875 48.539062 36.058594 48.539062 36.285156 C 48.539062 36.511719 48.722656 36.695312 48.949219 36.695312 C 49.175781 36.695312 49.359375 36.511719 49.359375 36.285156 C 49.359375 36.058594 49.175781 35.875 48.949219 35.875 Z M 48.949219 35.875 " fill-opacity="1" fill-rule="evenodd"/></g><g clip-path="url(#68b9ca0ffc)"><path fill="#ff8c9d" d="M 24.839844 3.441406 C 24.460938 2.753906 23.59375 2.417969 22.777344 2.417969 C 21.960938 2.417969 21.195312 2.648438 20.40625 2.804688 C 19.410156 2.984375 18.367188 3.035156 17.371094 2.90625 C 16.453125 2.804688 15.5625 2.394531 14.644531 2.316406 C 12.78125 2.164062 10.84375 2.035156 9.035156 2.546875 C 7.886719 2.878906 5.566406 3.597656 4.597656 5.617188 C 4.394531 6.054688 3.832031 7.230469 4.417969 8.253906 C 4.929688 9.125 6.023438 9.40625 6.816406 9.328125 C 6.941406 9.328125 8.21875 9.199219 8.574219 8.382812 C 8.804688 7.84375 8.421875 7.460938 8.652344 7.023438 C 8.878906 6.566406 9.570312 6.4375 10.207031 6.4375 C 9.007812 10.710938 6.839844 14.703125 3.859375 17.976562 C 3.324219 18.566406 2.761719 19.152344 2.582031 19.894531 C 2.378906 20.6875 2.660156 21.582031 3.269531 22.121094 C 3.882812 22.660156 4.800781 22.835938 5.566406 22.582031 C 6.382812 22.300781 6.992188 21.582031 7.503906 20.894531 C 8.421875 19.691406 9.289062 18.410156 10.078125 17.105469 C 11.480469 14.804688 12.652344 12.320312 13.496094 9.761719 C 13.828125 8.789062 14.082031 7.792969 14.3125 6.796875 C 15.101562 6.921875 15.816406 7.050781 16.605469 7.152344 C 16.605469 7.152344 16.632812 7.152344 16.632812 7.152344 C 15.867188 8.738281 15.28125 10.378906 14.847656 12.066406 C 14.59375 13.039062 14.386719 14.011719 14.261719 14.984375 C 14.054688 16.3125 13.980469 17.695312 14.3125 19 C 14.644531 20.304688 15.457031 21.53125 16.65625 22.121094 C 18.007812 22.761719 19.691406 22.480469 21.015625 21.761719 C 21.808594 21.328125 22.546875 20.6875 22.929688 19.84375 C 23.3125 19 23.285156 17.949219 22.726562 17.234375 C 22.140625 16.519531 20.964844 16.3125 20.277344 16.925781 C 20.074219 17.105469 19.945312 17.3125 19.742188 17.464844 C 19.539062 17.617188 19.257812 17.746094 19.027344 17.644531 C 18.644531 17.488281 18.644531 16.976562 18.695312 16.570312 C 19.128906 13.394531 19.945312 10.222656 21.09375 7.203125 C 21.476562 7.152344 21.859375 7.078125 22.265625 6.972656 C 23.082031 6.769531 23.898438 6.410156 24.460938 5.796875 C 25.019531 5.183594 25.25 4.183594 24.839844 3.441406 Z M 24.839844 3.441406 " fill-opacity="1" fill-rule="nonzero"/></g><path fill="#e87288" d="M 19.105469 21.40625 C 18.902344 21.378906 18.671875 21.429688 18.46875 21.429688 C 18.238281 21.429688 18.007812 21.378906 17.804688 21.300781 C 17.371094 21.175781 16.964844 20.917969 16.605469 20.636719 C 15.890625 20.023438 15.40625 19.203125 14.898438 18.4375 C 14.820312 18.335938 14.667969 18.410156 14.71875 18.539062 C 15.203125 19.433594 15.738281 20.355469 16.554688 20.996094 C 16.910156 21.277344 17.34375 21.507812 17.804688 21.636719 C 18.210938 21.761719 18.796875 21.839844 19.179688 21.609375 C 19.257812 21.558594 19.207031 21.40625 19.105469 21.40625 Z M 19.105469 21.40625 " fill-opacity="1" fill-rule="nonzero"/><path fill="#e87288" d="M 11.761719 12.601562 C 11.355469 13.320312 10.945312 14.035156 10.539062 14.777344 C 10.128906 15.496094 9.695312 16.210938 9.363281 16.976562 C 9.3125 17.082031 9.46875 17.183594 9.542969 17.082031 C 10.003906 16.390625 10.386719 15.648438 10.765625 14.90625 C 11.175781 14.1875 11.558594 13.449219 11.941406 12.707031 C 11.992188 12.578125 11.8125 12.476562 11.761719 12.601562 Z M 11.761719 12.601562 " fill-opacity="1" fill-rule="nonzero"/><path fill="#e87288" d="M 6.507812 7.972656 C 6 8.046875 5.464844 7.921875 5.132812 7.511719 C 4.980469 7.308594 4.878906 7.050781 4.878906 6.820312 C 4.878906 6.691406 4.878906 6.566406 4.902344 6.4375 C 4.929688 6.308594 5.003906 6.179688 5.03125 6.027344 C 5.054688 5.925781 4.929688 5.875 4.851562 5.925781 C 4.726562 6.027344 4.648438 6.207031 4.621094 6.359375 C 4.570312 6.511719 4.546875 6.667969 4.546875 6.820312 C 4.546875 7.152344 4.671875 7.484375 4.878906 7.742188 C 5.261719 8.226562 6 8.457031 6.558594 8.152344 C 6.664062 8.101562 6.585938 7.972656 6.507812 7.972656 Z M 6.507812 7.972656 " fill-opacity="1" fill-rule="nonzero"/><g clip-path="url(#4aa060e812)"><path fill="#e87288" d="M 22.574219 2.984375 C 21.679688 3.136719 20.839844 3.519531 19.921875 3.648438 C 19.054688 3.777344 18.136719 3.777344 17.292969 3.496094 C 17.167969 3.441406 17.117188 3.648438 17.242188 3.699219 C 18.085938 4.03125 18.976562 4.082031 19.871094 3.953125 C 20.8125 3.828125 21.808594 3.570312 22.648438 3.109375 C 22.726562 3.085938 22.648438 2.957031 22.574219 2.984375 Z M 22.574219 2.984375 " fill-opacity="1" fill-rule="nonzero"/></g><g clip-path="url(#6e41ca0710)"><path fill="#000000" d="M 33.824219 14.386719 C 33.460938 14.082031 32.914062 13.828125 32.304688 13.871094 C 31.199219 13.949219 30.453125 14.644531 30.363281 15.769531 L 34.472656 15.769531 C 34.453125 15.171875 34.203125 14.707031 33.824219 14.386719 Z M 31.496094 6.886719 C 31.515625 7.121094 31.699219 7.613281 31.375 7.566406 C 31.160156 7.53125 31.238281 7.136719 31.148438 6.941406 C 30.875 7 30.578125 7.035156 30.339844 7.128906 C 30.394531 7.296875 30.449219 7.488281 30.511719 7.714844 C 30.578125 7.953125 30.800781 8.46875 30.484375 8.460938 C 30.28125 8.453125 30.253906 8.074219 30.207031 7.890625 C 30.136719 7.640625 30.070312 7.441406 30.019531 7.210938 C 29.757812 7.289062 29.496094 7.367188 29.273438 7.484375 C 29.386719 7.617188 29.621094 8.121094 29.289062 8.09375 C 29.085938 8.078125 29.082031 7.75 28.96875 7.605469 C 28.746094 7.691406 28.550781 7.800781 28.34375 7.902344 C 28.425781 8.085938 28.519531 8.261719 28.636719 8.488281 C 28.707031 8.617188 29.125 9.234375 28.742188 9.234375 C 28.632812 9.230469 28.570312 9.101562 28.515625 9 C 28.347656 8.679688 28.207031 8.382812 28.050781 8.09375 C 27.796875 8.195312 27.613281 8.367188 27.386719 8.5 C 27.414062 8.65625 27.6875 8.765625 27.679688 8.960938 C 27.675781 9.054688 27.609375 9.125 27.507812 9.125 C 27.292969 9.121094 27.273438 8.808594 27.09375 8.730469 C 26.917969 8.859375 26.753906 9.007812 26.589844 9.152344 C 26.734375 9.347656 26.890625 9.496094 27.039062 9.667969 C 27.117188 9.753906 27.464844 10.082031 27.453125 10.222656 C 27.445312 10.296875 27.375 10.378906 27.265625 10.371094 C 27.160156 10.367188 27.085938 10.238281 27.015625 10.15625 C 26.839844 9.957031 26.746094 9.84375 26.5625 9.640625 C 26.53125 9.605469 26.359375 9.394531 26.324219 9.394531 C 26.304688 9.394531 26.214844 9.519531 26.191406 9.542969 C 26.03125 9.707031 25.882812 9.855469 25.777344 10.003906 C 25.890625 10.097656 26.230469 10.21875 26.230469 10.414062 C 26.230469 10.503906 26.164062 10.5625 26.097656 10.574219 C 25.875 10.613281 25.742188 10.308594 25.589844 10.261719 C 25.414062 10.417969 25.296875 10.628906 25.164062 10.832031 C 25.355469 10.957031 25.523438 11.078125 25.722656 11.226562 C 25.835938 11.308594 26.222656 11.511719 26.214844 11.6875 C 26.214844 11.761719 26.148438 11.847656 26.058594 11.851562 C 25.890625 11.855469 25.664062 11.609375 25.511719 11.496094 C 25.304688 11.347656 25.140625 11.230469 24.980469 11.117188 C 24.839844 11.339844 24.707031 11.574219 24.59375 11.824219 C 24.714844 11.90625 25.039062 11.933594 25.058594 12.121094 C 25.101562 12.488281 24.558594 12.199219 24.449219 12.121094 C 24.328125 12.390625 24.214844 12.667969 24.117188 12.960938 C 24.34375 13.023438 24.542969 13.097656 24.792969 13.179688 C 24.972656 13.238281 25.390625 13.285156 25.351562 13.53125 C 25.34375 13.59375 25.269531 13.660156 25.207031 13.667969 C 25.054688 13.683594 24.800781 13.542969 24.609375 13.476562 C 24.386719 13.402344 24.179688 13.351562 24.007812 13.289062 C 23.933594 13.542969 23.867188 13.804688 23.808594 14.074219 C 24.058594 14.105469 24.402344 14.070312 24.394531 14.304688 C 24.386719 14.578125 23.984375 14.402344 23.742188 14.414062 C 23.707031 14.640625 23.679688 14.871094 23.648438 15.105469 C 23.894531 15.117188 24.128906 15.15625 24.394531 15.183594 C 24.621094 15.210938 25.011719 15.152344 25.007812 15.402344 C 25 15.679688 24.535156 15.539062 24.273438 15.511719 C 24.035156 15.484375 23.820312 15.46875 23.625 15.457031 C 23.632812 15.574219 23.609375 15.660156 23.609375 15.769531 L 30.164062 15.769531 C 30.152344 15.066406 30.4375 14.609375 30.84375 14.25 C 31.304688 13.84375 31.832031 13.621094 32.613281 13.667969 C 33.777344 13.734375 34.644531 14.554688 34.671875 15.769531 L 41.453125 15.769531 C 41.453125 15.660156 41.433594 15.574219 41.441406 15.457031 C 41.246094 15.46875 41.035156 15.484375 40.789062 15.511719 C 40.511719 15.539062 40.027344 15.683594 40.058594 15.375 C 40.078125 15.171875 40.46875 15.195312 40.671875 15.171875 C 40.957031 15.140625 41.167969 15.132812 41.414062 15.105469 C 41.386719 14.871094 41.355469 14.640625 41.320312 14.414062 C 41.070312 14.410156 40.664062 14.574219 40.671875 14.289062 C 40.675781 14.0625 41.015625 14.105469 41.253906 14.074219 C 41.195312 13.804688 41.128906 13.542969 41.054688 13.289062 C 40.882812 13.351562 40.683594 13.402344 40.457031 13.476562 C 40.230469 13.554688 39.746094 13.816406 39.714844 13.519531 C 39.6875 13.285156 40.085938 13.238281 40.269531 13.179688 C 40.519531 13.097656 40.738281 13.03125 40.949219 12.949219 C 40.835938 12.667969 40.75 12.367188 40.605469 12.121094 C 40.496094 12.230469 39.917969 12.476562 40.003906 12.09375 C 40.039062 11.941406 40.359375 11.898438 40.46875 11.824219 C 40.347656 11.574219 40.234375 11.324219 40.070312 11.117188 C 39.921875 11.242188 39.761719 11.347656 39.554688 11.496094 C 39.398438 11.609375 39.167969 11.867188 38.996094 11.851562 C 38.902344 11.839844 38.847656 11.746094 38.847656 11.671875 C 38.851562 11.554688 38.976562 11.5 39.074219 11.429688 C 39.367188 11.214844 39.617188 11.011719 39.898438 10.832031 C 39.769531 10.628906 39.648438 10.417969 39.472656 10.261719 C 39.324219 10.304688 39.183594 10.628906 38.957031 10.574219 C 38.894531 10.5625 38.832031 10.492188 38.835938 10.398438 C 38.84375 10.191406 39.167969 10.132812 39.289062 9.992188 C 39.199219 9.90625 39.132812 9.804688 39.023438 9.679688 C 38.996094 9.652344 38.765625 9.394531 38.730469 9.394531 C 38.71875 9.394531 38.640625 9.496094 38.621094 9.515625 C 38.503906 9.652344 38.371094 9.789062 38.277344 9.898438 C 38.175781 10.011719 37.960938 10.371094 37.785156 10.371094 C 37.683594 10.371094 37.613281 10.289062 37.613281 10.207031 C 37.609375 10.113281 37.710938 10.023438 37.796875 9.925781 C 38.058594 9.632812 38.234375 9.449219 38.476562 9.152344 C 38.304688 9.007812 38.152344 8.851562 37.957031 8.730469 C 37.796875 8.820312 37.765625 9.132812 37.546875 9.125 C 37.449219 9.121094 37.386719 9.050781 37.386719 8.949219 C 37.386719 8.765625 37.648438 8.652344 37.679688 8.5 C 37.453125 8.367188 37.265625 8.195312 37.011719 8.09375 C 36.902344 8.292969 36.828125 8.472656 36.707031 8.703125 C 36.644531 8.828125 36.484375 9.242188 36.308594 9.234375 C 36.039062 9.21875 36.207031 8.902344 36.28125 8.757812 C 36.429688 8.46875 36.605469 8.160156 36.722656 7.902344 C 36.515625 7.800781 36.316406 7.691406 36.097656 7.605469 C 35.984375 7.75 35.980469 8.085938 35.765625 8.09375 C 35.441406 8.101562 35.695312 7.617188 35.789062 7.46875 C 35.550781 7.375 35.3125 7.28125 35.046875 7.210938 C 35 7.4375 34.925781 7.632812 34.859375 7.875 C 34.808594 8.066406 34.789062 8.453125 34.582031 8.460938 C 34.332031 8.46875 34.421875 8.191406 34.472656 8.011719 C 34.558594 7.710938 34.652344 7.367188 34.726562 7.117188 C 34.46875 7.046875 34.195312 6.992188 33.914062 6.941406 C 33.824219 7.136719 33.910156 7.542969 33.675781 7.566406 C 33.367188 7.59375 33.550781 7.125 33.570312 6.886719 C 33.304688 6.871094 33.070312 6.828125 32.785156 6.832031 C 32.71875 7.140625 32.878906 7.878906 32.773438 8.148438 C 32.710938 8.300781 32.546875 8.246094 32.386719 8.242188 C 32.351562 8.21875 32.308594 8.179688 32.292969 8.132812 C 32.183594 7.820312 32.347656 7.160156 32.28125 6.832031 C 31.996094 6.828125 31.757812 6.871094 31.496094 6.886719 Z M 32.039062 6.492188 C 35.214844 6.339844 37.484375 7.597656 39.023438 9.164062 C 40.492188 10.664062 41.664062 12.574219 41.800781 15.496094 C 41.808594 15.667969 41.84375 15.96875 41.773438 16.054688 C 41.664062 16.191406 40.910156 16.121094 40.671875 16.121094 L 24.382812 16.121094 C 24.074219 16.121094 23.378906 16.183594 23.277344 16.027344 C 23.21875 15.933594 23.257812 15.660156 23.265625 15.484375 C 23.359375 13.433594 23.957031 11.964844 24.792969 10.683594 C 25.964844 8.894531 27.707031 7.449219 30.058594 6.804688 C 30.667969 6.640625 31.3125 6.527344 32.039062 6.492188 " fill-opacity="1" fill-rule="evenodd"/></g><g clip-path="url(#13210c3677)"><path fill="#000000" d="M 8.980469 22.835938 L 15.800781 22.835938 L 15.984375 24.707031 L 15.726562 24.707031 C 15.695312 24.335938 15.621094 24.054688 15.5 23.863281 C 15.378906 23.667969 15.214844 23.527344 15.003906 23.433594 C 14.792969 23.34375 14.460938 23.300781 14.003906 23.304688 L 10.898438 23.304688 L 13.667969 26.207031 L 10.519531 29.246094 L 13.972656 29.246094 C 14.597656 29.246094 15.074219 29.164062 15.40625 29 C 15.738281 28.835938 15.984375 28.492188 16.148438 27.972656 L 16.40625 28.019531 L 16.015625 30.265625 L 8.980469 30.265625 L 8.980469 30.070312 L 12.480469 26.695312 L 8.980469 23.035156 Z M 8.980469 22.835938 " fill-opacity="1" fill-rule="nonzero"/></g><g clip-path="url(#6fb1c1c66e)"><path fill="#333333" d="M 79.28125 8.90625 C 79.28125 9.566406 79.226562 10.191406 79.121094 10.785156 C 79.011719 11.375 78.871094 11.878906 78.699219 12.304688 C 78.59375 12.570312 78.488281 12.765625 78.382812 12.894531 C 78.277344 13.023438 78.136719 13.089844 77.964844 13.089844 C 77.78125 13.089844 77.628906 13.035156 77.503906 12.925781 C 77.382812 12.816406 77.324219 12.675781 77.324219 12.5 C 77.324219 12.460938 77.371094 12.296875 77.460938 12.011719 C 77.550781 11.730469 77.632812 11.449219 77.707031 11.175781 C 77.78125 10.902344 77.851562 10.570312 77.914062 10.175781 C 77.976562 9.78125 78.007812 9.359375 78.007812 8.90625 C 78.007812 8.363281 77.960938 7.847656 77.863281 7.363281 C 77.769531 6.875 77.65625 6.421875 77.523438 6.003906 C 77.390625 5.582031 77.324219 5.351562 77.324219 5.316406 C 77.324219 5.140625 77.382812 5 77.503906 4.894531 C 77.625 4.789062 77.777344 4.734375 77.964844 4.734375 C 78.140625 4.734375 78.28125 4.800781 78.386719 4.929688 C 78.492188 5.054688 78.597656 5.253906 78.699219 5.519531 C 78.871094 5.9375 79.011719 6.441406 79.121094 7.035156 C 79.226562 7.625 79.28125 8.25 79.28125 8.90625 Z M 72.859375 10.226562 L 74.082031 8.90625 L 73.339844 8.101562 C 73.160156 7.910156 73.039062 7.78125 72.976562 7.710938 C 72.914062 7.636719 72.867188 7.566406 72.835938 7.5 C 72.800781 7.425781 72.785156 7.34375 72.785156 7.253906 C 72.785156 7.039062 72.855469 6.859375 72.996094 6.71875 C 73.136719 6.578125 73.296875 6.507812 73.472656 6.507812 C 73.644531 6.507812 73.78125 6.53125 73.878906 6.578125 C 73.976562 6.628906 74.082031 6.71875 74.183594 6.859375 L 74.949219 7.820312 L 75.714844 6.859375 C 75.824219 6.71875 75.929688 6.628906 76.023438 6.578125 C 76.121094 6.53125 76.253906 6.507812 76.425781 6.507812 C 76.601562 6.507812 76.761719 6.578125 76.902344 6.714844 C 77.042969 6.851562 77.113281 7.03125 77.113281 7.253906 C 77.113281 7.34375 77.097656 7.425781 77.0625 7.5 C 77.03125 7.566406 76.984375 7.636719 76.917969 7.710938 C 76.859375 7.78125 76.738281 7.910156 76.558594 8.101562 L 75.816406 8.90625 L 77.042969 10.226562 C 77.121094 10.308594 77.183594 10.402344 77.238281 10.5 C 77.296875 10.597656 77.324219 10.710938 77.324219 10.84375 C 77.324219 11.0625 77.253906 11.242188 77.113281 11.375 C 76.972656 11.507812 76.796875 11.574219 76.589844 11.574219 C 76.457031 11.574219 76.34375 11.546875 76.257812 11.488281 C 76.175781 11.429688 76.074219 11.335938 75.953125 11.203125 L 74.949219 10.015625 L 73.945312 11.203125 C 73.839844 11.324219 73.742188 11.417969 73.648438 11.480469 C 73.558594 11.542969 73.441406 11.574219 73.308594 11.574219 C 73.101562 11.574219 72.925781 11.507812 72.785156 11.375 C 72.644531 11.242188 72.574219 11.0625 72.574219 10.84375 C 72.574219 10.714844 72.597656 10.605469 72.648438 10.515625 C 72.699219 10.425781 72.769531 10.328125 72.859375 10.226562 Z M 70.621094 8.90625 C 70.621094 8.480469 70.648438 8.054688 70.699219 7.625 C 70.75 7.195312 70.820312 6.804688 70.90625 6.453125 C 70.996094 6.101562 71.09375 5.789062 71.203125 5.519531 C 71.320312 5.242188 71.429688 5.039062 71.527344 4.921875 C 71.625 4.796875 71.765625 4.734375 71.941406 4.734375 C 72.128906 4.734375 72.28125 4.789062 72.398438 4.894531 C 72.515625 5 72.574219 5.140625 72.574219 5.316406 C 72.574219 5.351562 72.507812 5.582031 72.375 6.003906 C 72.246094 6.421875 72.132812 6.875 72.035156 7.363281 C 71.9375 7.847656 71.890625 8.363281 71.890625 8.90625 C 71.890625 9.328125 71.921875 9.746094 71.984375 10.152344 C 72.046875 10.5625 72.117188 10.902344 72.191406 11.175781 C 72.265625 11.449219 72.351562 11.726562 72.441406 12.003906 C 72.53125 12.277344 72.574219 12.445312 72.574219 12.5 C 72.574219 12.675781 72.515625 12.816406 72.394531 12.925781 C 72.273438 13.035156 72.125 13.089844 71.941406 13.089844 C 71.765625 13.089844 71.628906 13.027344 71.53125 12.902344 C 71.433594 12.785156 71.324219 12.582031 71.203125 12.304688 C 71.117188 12.085938 71.042969 11.855469 70.972656 11.613281 C 70.90625 11.378906 70.847656 11.105469 70.789062 10.804688 C 70.734375 10.496094 70.691406 10.183594 70.664062 9.859375 C 70.636719 9.535156 70.621094 9.21875 70.621094 8.90625 Z M 70.621094 8.90625 " fill-opacity="1" fill-rule="nonzero"/></g><g clip-path="url(#cb1a78452f)"><path stroke-linecap="round" transform="matrix(0.286685, 0, 0, 0.287319, 62.864619, -0.382333)" fill="none" stroke-linejoin="round" d="M 21.687291 14.368798 C 10.051027 17.67251 16.659444 41.777371 5.663583 44.99951 " stroke="#333333" stroke-width="5" stroke-opacity="1" stroke-miterlimit="4"/></g><path stroke-linecap="round" transform="matrix(0.286685, 0, 0, 0.287319, 62.864619, -0.382333)" fill="none" stroke-linejoin="round" d="M 6.685503 26.618364 L 23.090728 26.618364 " stroke="#333333" stroke-width="5" stroke-opacity="1" stroke-miterlimit="4"/><path fill="#b3b3b3" d="M 67.992188 22.203125 L 75.710938 16.976562 C 75.804688 16.914062 75.921875 16.902344 76.0625 16.933594 C 76.203125 16.964844 76.328125 17.035156 76.4375 17.140625 L 85.546875 26.121094 C 85.65625 26.226562 85.71875 26.339844 85.730469 26.460938 C 85.742188 26.578125 85.703125 26.671875 85.609375 26.730469 L 77.890625 31.957031 C 77.800781 32.019531 77.683594 32.035156 77.542969 32 C 77.402344 31.96875 77.277344 31.902344 77.167969 31.792969 L 68.054688 22.8125 C 67.945312 22.707031 67.886719 22.59375 67.875 22.472656 C 67.863281 22.355469 67.902344 22.265625 67.992188 22.203125 " fill-opacity="1" fill-rule="evenodd"/><g clip-path="url(#d4a18deee6)"><path stroke-linecap="butt" transform="matrix(0.198267, -0.134192, 0.235848, 0.232431, 57.030637, 25.641322)" fill="none" stroke-linejoin="round" d="M 43.208461 10.153752 L 82.146575 10.147867 C 82.616533 10.150297 83.002496 10.322712 83.328169 10.645185 C 83.653842 10.967659 83.814274 11.362793 83.821318 11.820623 L 83.811955 50.452373 C 83.818998 50.910204 83.662175 51.307039 83.329804 51.636135 C 83.009285 51.955269 82.608035 52.126955 82.14993 52.114563 L 43.211816 52.120447 C 42.753538 52.124761 42.355723 51.96231 42.041902 51.629873 C 41.716229 51.307399 41.543945 50.922229 41.548753 50.454435 L 41.546436 11.815941 C 41.539393 11.358111 41.707896 10.968019 42.040267 10.638922 C 42.360786 10.319789 42.750184 10.158066 43.208461 10.153752 " stroke="#4c4c4c" stroke-width="3.752" stroke-opacity="1" stroke-miterlimit="4"/></g><path stroke-linecap="round" transform="matrix(0.198267, -0.134192, 0.235848, 0.232431, 57.030637, 25.641322)" fill="none" stroke-linejoin="round" d="M 41.994074 16.275899 L 82.953727 16.210292 " stroke="#4c4c4c" stroke-width="0.75" stroke-opacity="1" stroke-miterlimit="4"/><path stroke-linecap="round" transform="matrix(0.198267, -0.134192, 0.235848, 0.232431, 57.030637, 25.641322)" fill="none" stroke-linejoin="round" d="M 41.820774 22.847855 L 82.759642 22.518158 " stroke="#4c4c4c" stroke-width="0.75" stroke-opacity="1" stroke-miterlimit="4"/><path stroke-linecap="round" transform="matrix(0.198267, -0.134192, 0.235848, 0.232431, 57.030637, 25.641322)" fill="none" stroke-linejoin="round" d="M 42.536544 28.655849 L 82.947226 28.273297 " stroke="#4c4c4c" stroke-width="0.75" stroke-opacity="1" stroke-miterlimit="4"/><path stroke-linecap="round" transform="matrix(0.198267, -0.134192, 0.235848, 0.232431, 57.030637, 25.641322)" fill="none" stroke-linejoin="round" d="M 43.074535 34.613294 L 82.594942 33.96884 " stroke="#4c4c4c" stroke-width="0.75" stroke-opacity="1" stroke-miterlimit="4"/><path stroke-linecap="round" transform="matrix(0.198267, -0.134192, 0.235848, 0.232431, 57.030637, 25.641322)" fill="none" stroke-linejoin="round" d="M 42.897455 40.409988 L 82.946048 39.818388 " stroke="#4c4c4c" stroke-width="0.75" stroke-opacity="1" stroke-miterlimit="4"/><path stroke-linecap="round" transform="matrix(0.198267, -0.134192, 0.235848, 0.232431, 57.030637, 25.641322)" fill="none" stroke-linejoin="round" d="M 42.133443 46.153526 L 83.825857 45.67067 " stroke="#4c4c4c" stroke-width="0.75" stroke-opacity="1" stroke-miterlimit="4"/><path stroke-linecap="round" transform="matrix(0.277057, 0.279779, -0.154798, 0.304721, 66.128597, -0.779086)" fill="none" stroke-linejoin="round" d="M 41.813158 22.851963 L 77.7872 22.536856 " stroke="#4c4c4c" stroke-width="0.585" stroke-opacity="1" stroke-miterlimit="4"/><path stroke-linecap="round" transform="matrix(0.277057, 0.279779, -0.154798, 0.304721, 65.287328, -1.624247)" fill="none" stroke-linejoin="round" d="M 42.536096 28.653661 L 78.250669 28.025563 " stroke="#4c4c4c" stroke-width="0.585" stroke-opacity="1" stroke-miterlimit="4"/><path stroke-linecap="round" transform="matrix(0.277057, 0.279779, -0.154798, 0.304721, 64.506176, -2.469741)" fill="none" stroke-linejoin="round" d="M 43.074018 34.613508 L 77.892319 33.718696 " stroke="#4c4c4c" stroke-width="0.585" stroke-opacity="1" stroke-miterlimit="4"/><path stroke-linecap="round" transform="matrix(0.277057, 0.279779, -0.154798, 0.304721, 63.905039, -3.073333)" fill="none" stroke-linejoin="round" d="M 42.898509 40.4089 L 78.191802 39.834302 " stroke="#4c4c4c" stroke-width="0.585" stroke-opacity="1" stroke-miterlimit="4"/><path stroke-linecap="round" transform="matrix(0.182761, -0.106006, 0.105517, 0.183607, 70.474914, 23.777831)" fill-opacity="1" fill="#595959" fill-rule="evenodd" stroke-linejoin="round" d="M 48.099862 30.873966 L 35.202339 40.256122 L 43.148179 26.419484 Z M 48.099862 30.873966 " stroke="#333333" stroke-width="2.967" stroke-opacity="1" stroke-miterlimit="4"/><path fill="#b3b3b3" d="M 82.511719 24.339844 L 81.164062 24.050781 L 83.25 14.277344 L 84.601562 14.570312 Z M 82.511719 24.339844 " fill-opacity="1" fill-rule="evenodd"/><g clip-path="url(#4d9821a45c)"><path stroke-linecap="round" transform="matrix(-0.206329, -0.0445328, 0.0443276, -0.207284, 70.474857, 23.777875)" fill="none" stroke-linejoin="round" d="M -56.321121 9.388895 L -49.79132 9.380559 L -49.772294 56.526433 L -56.324063 56.520644 Z M -56.321121 9.388895 " stroke="#333333" stroke-width="2.967" stroke-opacity="1" stroke-miterlimit="4"/></g><path stroke-linecap="butt" transform="matrix(-0.279364, -0.0603011, 0.0600232, -0.280658, 97.374816, 35.391558)" fill-opacity="1" fill="#333333" fill-rule="evenodd" stroke-linejoin="miter" d="M 61.967406 18.728934 C 61.961846 18.312582 61.763372 18.104698 61.345252 18.111025 C 60.93764 18.101176 60.73136 18.312514 60.723554 18.731737 C 60.726255 19.134785 60.924729 19.342669 61.345708 19.349647 C 61.763827 19.34332 61.970107 19.131981 61.967406 18.728934 L 61.350733 18.722248 Z M 61.967406 18.728934 " stroke="#333333" stroke-width="2.192" stroke-opacity="1" stroke-miterlimit="4"/><g clip-path="url(#69ed3f0ff6)"><path fill="#cccccc" d="M 84.253906 14.527344 L 83.5625 14.378906 C 83.445312 14.351562 83.351562 14.289062 83.289062 14.191406 C 83.222656 14.089844 83.203125 13.980469 83.226562 13.867188 C 83.253906 13.75 83.316406 13.660156 83.414062 13.59375 C 83.515625 13.53125 83.625 13.511719 83.742188 13.535156 L 84.433594 13.683594 C 84.550781 13.710938 84.640625 13.773438 84.707031 13.875 C 84.773438 13.972656 84.792969 14.082031 84.765625 14.199219 C 84.742188 14.3125 84.679688 14.402344 84.578125 14.46875 C 84.480469 14.53125 84.371094 14.550781 84.253906 14.527344 " fill-opacity="1" fill-rule="evenodd"/></g><g clip-path="url(#f755e6ecc6)"><path stroke-linecap="butt" transform="matrix(-0.206329, -0.0445328, 0.0443276, -0.207284, 70.474857, 23.777875)" fill="none" stroke-linejoin="miter" d="M -54.670871 56.372767 L -51.320664 56.369117 C -50.750668 56.378573 -50.254423 56.573479 -49.868123 56.961609 C -49.459856 57.363865 -49.261011 57.848803 -49.257362 58.394521 C -49.26794 58.962141 -49.46848 59.438658 -49.855112 59.842085 C -50.26371 60.231386 -50.751073 60.430316 -51.317199 60.438872 L -54.667406 60.442523 C -55.237402 60.433066 -55.71555 60.234273 -56.123817 59.832017 C -56.528214 59.447774 -56.727059 58.962837 -56.716481 58.395217 C -56.72013 57.849498 -56.51959 57.372982 -56.114861 56.965667 C -55.72436 56.580253 -55.236997 56.381324 -54.670871 56.372767 " stroke="#333333" stroke-width="2.967" stroke-opacity="1" stroke-miterlimit="4"/></g><path stroke-linecap="round" transform="matrix(-0.0971187, 0.321014, -0.319535, -0.0975683, 72.586432, 23.496191)" fill-opacity="1" fill="#7f7f7f" fill-rule="evenodd" stroke-linejoin="round" d="M -9.720073 -15.564718 L -9.721159 2.968396 L 26.284603 2.966081 Z M -6.068632 -9.596374 L 12.255304 -0.153662 L -6.060544 -0.161293 Z M -6.068632 -9.596374 " stroke="#333333" stroke-width="1.875" stroke-opacity="1" stroke-miterlimit="4"/></svg>